PathFileType	3	(X/Y/Z)	D:\minhoCalibration\240510\subject1_KPNP\preferred\preferred08.trc
DataRate	CameraRate	NumFrames	NumMarkers	Units	OrigDataRate	OrigDataStartFrame	OrigNumFrames
200.0	200.0	24	10	mm	200.0	210	196	
Frame#	Time	Left_Ankle_Outer1			Left_Ankle_Inner1			Left_Knee_Outer1			Left_Knee_Inner1			Left_Wrist1			Right_Wrist1			Right_Knee_Inner1			Right_Knee_Outer1			Right_Ankle_Inner1			Right_Ankle_Outer1			
		X1	Y1	Z1	X2	Y2	Z2	X3	Y3	Z3	X4	Y4	Z4	X5	Y5	Z5	X6	Y6	Z6	X7	Y7	Z7	X8	Y8	Z8	X9	Y9	Z9	X10	Y10	Z10	
210	1.04	-534.51898	127.5516	-577.5127	-582.82037	132.2775	-547.84991	-465.97839	558.59192	-423.10095	-578.22308	524.40381	-432.60565	-485.23773	946.85608	-631.31909	-714.22186	967.841	-896.5639	-712.37653	487.16879	-887.1615	-748.96844	531.98987	-986.96381	-606.32434	113.69958	-1098.1298	-683.14832	117.21368	-1177.4274
211	1.045	-531.40466	127.86076	-577.35663	-580.2002	132.29962	-548.53192	-465.52722	557.89264	-419.53299	-577.78247	523.8045	-429.60123	-483.50189	945.74799	-628.58282	-714.53278	967.18097	-891.97803	-715.2182	486.28513	-882.47504	-751.75061	531.47064	-982.56665	-606.91223	115.11874	-1096.7228	-683.362	118.72963	-1176.3518
212	1.05	-528.01813	128.04323	-577.11102	-577.2583	132.33902	-549.32959	-465.4205	557.0813	-416.15903	-577.44861	523.23944	-426.86502	-481.6763	944.88806	-625.67566	-714.87048	966.62384	-886.87097	-718.41675	485.58713	-877.40509	-754.75836	531.19531	-977.77905	-607.56775	116.7134	-1095.2904	-683.74908	120.42491	-1175.1683
213	1.055	-524.37506	128.20619	-576.63342	-574.05219	132.2657	-550.06622	-465.50891	556.28113	-412.81989	-577.14154	522.70013	-424.24405	-479.56665	944.34497	-622.69678	-715.20618	966.26459	-881.59619	-721.97937	485.04459	-871.89722	-758.12329	531.06726	-972.78516	-608.43896	118.90343	-1093.5598	-684.05414	123.1629	-1173.7697
214	1.06	-520.46198	128.2753	-576.05151	-570.6369	132.19563	-550.63251	-465.63794	555.4519	-409.49744	-576.823	522.20734	-421.9498	-477.40826	944.11627	-619.53052	-715.47131	966.08521	-875.96674	-725.99097	484.75351	-865.67975	-761.79572	531.28687	-967.5282	-609.37018	121.5169	-1091.8004	-684.6452	125.91051	-1172.2662
215	1.065	-516.4386	128.40744	-575.38989	-567.18311	131.99159	-551.12689	-465.71564	554.71527	-406.20126	-576.55139	521.69	-420.03336	-475.01382	944.21118	-616.23676	-715.70593	965.9939	-870.17853	-730.43109	484.69955	-858.99353	-765.73938	531.51917	-961.26001	-610.52539	124.64513	-1089.7562	-685.46143	129.33133	-1170.4995
216	1.07	-512.54083	128.43135	-574.42334	-563.71881	131.8197	-551.49725	-465.86371	554.013	-402.96927	-576.07623	521.13379	-418.5285	-472.41348	944.70142	-612.73431	-715.8562	966.18481	-864.08392	-735.28784	485.00372	-851.50403	-770.30548	532.27985	-955.05377	-611.95905	128.33466	-1087.3756	-686.43597	133.33784	-1168.2823
217	1.075	-508.75909	128.33884	-573.59039	-560.388	131.69539	-551.87097	-465.81555	553.37933	-399.92114	-575.6554	520.58093	-417.3837	-469.62207	945.50305	-609.08643	-715.96497	966.52692	-857.7406	-740.55511	485.52628	-843.41968	-775.24103	533.26056	-947.59534	-613.57062	132.6985	-1084.6733	-687.96216	137.91927	-1165.651
218	1.08	-505.12903	128.20872	-572.84167	-557.16925	131.56604	-552.17633	-465.59207	552.66583	-396.99707	-574.95044	519.95105	-416.77463	-466.64346	946.62384	-605.26727	-715.98755	966.93799	-851.0354	-746.19287	486.44	-834.47095	-780.81781	534.43317	-939.34656	-615.6004	137.67268	-1081.2717	-689.62494	143.09758	-1162.3877
219	1.085	-501.77084	127.81359	-572.19379	-554.08746	131.18918	-552.65576	-465.15192	551.95032	-394.46606	-574.03369	519.19568	-416.5459	-463.50797	948.04712	-601.26422	-715.94653	967.70001	-844.28644	-752.14008	487.6601	-824.79932	-786.95337	535.87256	-930.01196	-618.08704	143.39516	-1077.3395	-691.85742	149.04831	-1158.502
220	1.09	-498.49429	127.42992	-571.7179	-551.28735	130.93214	-553.38531	-464.41849	551.1203	-392.29901	-572.88928	518.48169	-416.67349	-460.26804	949.70087	-597.22333	-715.66644	968.83246	-837.50433	-758.38074	489.25009	-814.16656	-793.64948	537.58649	-919.63739	-620.90387	149.69485	-1072.7506	-694.58533	155.6476	-1153.8131
221	1.095	-495.62064	126.82105	-571.26306	-548.49933	130.46658	-554.12561	-463.39059	550.19623	-390.58496	-571.56085	517.56262	-417.13107	-456.85815	951.62714	-593.0293	-715.23187	969.47681	-830.26819	-764.90717	491.17953	-802.67474	-801.00238	539.56299	-908.10565	-624.4552	156.6409	-1067.2694	-698.00305	163.0359	-1148.2175
222	1.1	-493.0191	126.15665	-570.96295	-545.8714	129.82904	-554.68683	-462.04703	549.23547	-389.2963	-569.91101	516.83716	-417.68173	-453.36807	953.80273	-588.78461	-714.20636	969.84521	-823.05225	-771.66937	493.55151	-790.1344	-808.88733	541.87616	-895.47565	-628.94073	163.92926	-1060.6708	-702.42865	170.75725	-1141.4752
223	1.105	-490.71909	125.38311	-570.85626	-544.04279	129.69717	-555.80011	-460.32404	548.30652	-388.44025	-567.8606	516.14594	-418.31525	-449.84784	956.21472	-584.65991	-713.98383	971.80859	-816.12073	-778.54755	496.29541	-776.51141	-817.005	544.58423	-881.69128	-634.05023	171.52174	-1053.1039	-707.74353	178.77513	-1133.4989
224	1.11	-488.76736	124.57265	-570.64368	-541.91248	129.22932	-556.16315	-458.23022	547.4455	-388.15472	-565.54413	515.48511	-418.99307	-446.1528	958.88995	-580.65991	-712.73877	972.90356	-808.40405	-785.53156	499.31024	-761.96973	-825.15179	547.61627	-866.90759	-639.68353	179.53778	-1044.5847	-713.68274	187.10832	-1124.6049
225	1.115	-486.95596	124.01839	-570.50555	-539.94379	128.65881	-556.28668	-455.38596	546.84601	-388.45819	-563.02295	514.98792	-419.56921	-442.36023	961.82269	-576.8512	-712.0293	974.18719	-801.17261	-792.66803	503.14163	-746.91644	-833.06232	551.04889	-851.29034	-645.45251	188.16592	-1035.4091	-719.71069	196.10063	-1115.0608
226	1.12	-485.29861	123.51264	-570.39136	-538.63074	128.7054	-556.90393	-452.72009	546.30127	-389.05972	-560.33484	514.85571	-419.81839	-438.58185	965.0097	-573.31335	-711.18372	975.883	-793.62299	-798.98962	506.94739	-730.72418	-840.646	554.7605	-834.78821	-651.1098	197.52356	-1025.7642	-725.56445	205.7872	-1104.952
227	1.125	-483.89932	123.12275	-570.15375	-536.98059	128.46072	-557.58124	-449.78647	546.03107	-389.91592	-556.9339	515.23444	-420.09399	-434.67038	968.39313	-569.97345	-710.62341	977.64087	-786.0752	-805.5047	512.30103	-714.10669	-847.80127	558.7934	-817.47223	-656.28009	207.6496	-1015.5284	-731.54858	216.10187	-1093.8635
228	1.13	-482.6192	122.9922	-570.07239	-535.68658	128.49973	-557.66223	-446.7937	545.99677	-391.22461	-553.78528	515.71295	-420.39746	-430.64709	971.86407	-566.84265	-710.0155	980.07959	-778.7984	-810.44849	517.58594	-696.00629	-854.43445	563.1001	-798.78326	-660.8772	218.78973	-1004.9876	-737.70093	226.98636	-1081.6726
229	1.135	-481.4364	122.87756	-569.8819	-534.36798	128.72771	-557.83716	-443.61838	546.242	-392.87286	-550.53766	516.53418	-420.74258	-426.47177	975.50171	-563.92694	-710.08649	982.47742	-770.68958	-814.7193	523.73999	-677.91425	-860.57605	567.74335	-779.47235	-665.1355	230.84143	-994.13605	-744.0672	237.89224	-1068.4044
230	1.14	-480.31171	122.86523	-569.70837	-533.10693	129.11015	-557.84747	-440.36032	546.69116	-394.87784	-547.1073	517.62347	-421.34958	-421.97815	979.21515	-561.39447	-709.50604	985.70148	-762.69025	-817.53595	529.85791	-658.93402	-866.20129	572.77277	-759.61359	-668.7688	243.92511	-983.04724	-749.89069	248.88969	-1054.1154
231	1.145	-479.14355	123.00115	-569.56744	-531.93439	129.56653	-557.77264	-436.90677	547.37854	-397.12991	-543.58655	518.86993	-422.38708	-417.20779	983.09277	-559.39282	-710.18872	988.67926	-753.49475	-818.93774	536.06836	-639.638	-871.15961	578.04144	-738.9845	-671.96985	257.81485	-972.00891	-755.6662	259.99149	-1039.3395
232	1.15	-477.94635	123.41148	-569.55194	-530.63013	130.16653	-557.70856	-433.35773	548.23553	-399.65765	-540.01941	520.30591	-423.8222	-411.89127	987.07202	-558.22467	-710.98492	992.52472	-743.62708	-819.10046	542.21991	-619.93805	-875.29266	583.62524	-717.76807	-674.33801	273.5892	-960.21918	-760.82739	271.14633	-1023.9368
233	1.155	-476.9151	123.80885	-569.43927	-529.42804	130.91246	-557.64862	-429.61487	549.29071	-402.41364	-536.3844	521.93274	-425.69397	-406.00211	990.95367	-558.17511	-711.48828	996.55707	-733.07855	-818.19861	548.32129	-599.58356	-878.67169	589.26111	-695.97443	-676.01276	289.96545	-948.44641	-764.9776	283.20111	-1008.7307
